<svg width="170" height="158" viewBox="0 0 170 158" fill="none" xmlns="http://www.w3.org/2000/svg">
<g filter="url(#filter0_i)">
<path fill-rule="evenodd" clip-rule="evenodd" d="M63 85L63 6H73V85H63Z" fill="black"/>
<path fill-rule="evenodd" clip-rule="evenodd" d="M63 85H142V95L63 95V85Z" fill="black"/>
<path fill-rule="evenodd" clip-rule="evenodd" d="M71.8614 93L16 148.861L8.92893 141.79L64.7904 85.9289L71.8614 93Z" fill="black"/>
<path d="M84 16C84 24.8366 76.8366 32 68 32C59.1634 32 52 24.8366 52 16C52 7.16344 59.1634 0 68 0C76.8366 0 84 7.16344 84 16Z" fill="black"/>
<path d="M148 91C148 99.8366 140.837 107 132 107C123.163 107 116 99.8366 116 91C116 82.1634 123.163 75 132 75C140.837 75 148 82.1634 148 91Z" fill="black"/>
<path d="M32 141C32 149.837 24.8366 157 16 157C7.16344 157 0 149.837 0 141C0 132.163 7.16344 125 16 125C24.8366 125 32 132.163 32 141Z" fill="black"/>
<path d="M95.4613 102.406H76L62.6334 115.773C64.6909 116.188 66.82 116.406 69 116.406C79.9987 116.406 89.7014 110.858 95.4613 102.406Z" fill="black"/>
<path d="M39.3845 96.5499C37.8475 92.8054 37 88.7049 37 84.4065C37 71.362 44.8051 60.1405 56 55.1574V80.1291L39.3845 96.5499Z" fill="black"/>
<path d="M79 54V77.4065H100.232C97.7698 66.3723 89.6095 57.4872 79 54Z" fill="black"/>
</g>
<path d="M99.72 123.176L85.176 156.776H77.496L63 123.176H71.4L81.624 147.176L91.992 123.176H99.72Z" fill="black"/>
<path d="M124.808 139.448H131.911V153.08C130.087 154.456 127.976 155.512 125.576 156.248C123.175 156.984 120.76 157.352 118.328 157.352C114.84 157.352 111.704 156.616 108.92 155.144C106.136 153.64 103.944 151.576 102.344 148.952C100.776 146.296 99.9915 143.304 99.9915 139.976C99.9915 136.648 100.776 133.672 102.344 131.048C103.944 128.392 106.151 126.328 108.967 124.856C111.783 123.352 114.951 122.6 118.472 122.6C121.416 122.6 124.087 123.096 126.487 124.088C128.887 125.08 130.903 126.52 132.535 128.408L127.544 133.016C125.144 130.488 122.248 129.224 118.855 129.224C116.711 129.224 114.808 129.672 113.144 130.568C111.48 131.464 110.184 132.728 109.256 134.36C108.328 135.992 107.863 137.864 107.863 139.976C107.863 142.056 108.328 143.912 109.256 145.544C110.184 147.176 111.464 148.456 113.096 149.384C114.76 150.28 116.647 150.728 118.759 150.728C120.999 150.728 123.016 150.248 124.808 149.288V139.448Z" fill="black"/>
<path d="M138.607 130.952H146.095V156.776H138.607V130.952ZM142.351 127.352C140.975 127.352 139.855 126.952 138.991 126.152C138.127 125.352 137.695 124.36 137.695 123.176C137.695 121.992 138.127 121 138.991 120.2C139.855 119.4 140.975 119 142.351 119C143.727 119 144.847 119.384 145.711 120.152C146.575 120.92 147.007 121.88 147.007 123.032C147.007 124.28 146.575 125.32 145.711 126.152C144.847 126.952 143.727 127.352 142.351 127.352Z" fill="black"/>
<path d="M169.7 155.528C168.964 156.072 168.052 156.488 166.964 156.776C165.908 157.032 164.788 157.16 163.604 157.16C160.532 157.16 158.148 156.376 156.452 154.808C154.788 153.24 153.956 150.936 153.956 147.896V137.288H149.972V131.528H153.956V125.24H161.444V131.528H167.876V137.288H161.444V147.8C161.444 148.888 161.716 149.736 162.26 150.344C162.836 150.92 163.636 151.208 164.66 151.208C165.844 151.208 166.852 150.888 167.684 150.248L169.7 155.528Z" fill="black"/>
<defs>
<filter id="filter0_i" x="0" y="0" width="148" height="157" filterUnits="userSpaceOnUse" color-interpolation-filters="sRGB">
<feFlood flood-opacity="0" result="BackgroundImageFix"/>
<feBlend mode="normal" in="SourceGraphic" in2="BackgroundImageFix" result="shape"/>
<feColorMatrix in="SourceAlpha" type="matrix" values="0 0 0 0 0 0 0 0 0 0 0 0 0 0 0 0 0 0 127 0" result="hardAlpha"/>
<feOffset dx="-2" dy="2"/>
<feComposite in2="hardAlpha" operator="arithmetic" k2="-1" k3="1"/>
<feColorMatrix type="matrix" values="0 0 0 0 0 0 0 0 0 0 0 0 0 0 0 0 0 0 0.25 0"/>
<feBlend mode="normal" in2="shape" result="effect1_innerShadow"/>
</filter>
</defs>
</svg>
